# xmcd CD database file
#
# Track frame offsets:
#	150
#	12605
#	31861
#	44594
#	56465
#	68073
#	80028
#	92802
#	103839
#	115186
#	126811
#	140622
#	154637
#	168194
#	178796
#	193203
#	204002
#	217060
#	228815
#	241281
#	255424
#	268092
#	281977
#	300165
#	314863
#
# Disc length: 4349 seconds
#
# Revision: 2
# Processed by: cddbd v1.5.2PL0 Copyright (c) Steve Scherf et al.
# Submitted via: CDex 1.51
#
DISCID=6a10fb19
DTITLE=Reinhardt and Grappelli - Django Reinhardt and Stéphane Grappelli  de 1927 à 1956  [CD 2-2]
DYEAR=2010
DGENRE=Jazz
TTITLE0=Echoes Of France  (La Marseillaise)   [1931]
TTITLE1=La Mer   [1938]
TTITLE2=Lady Be Good   [1955]
TTITLE3=Minor Swing   [1949]
TTITLE4=Dinah   [1934]
TTITLE5=Ol' Man River   [1929]
TTITLE6=At The Jimmy's Bar   [1934]
TTITLE7=Swing 42   [1934]
TTITLE8=Stardust   [1947]
TTITLE9=Belleville   [1947]
TTITLE10=Swanee River   [1943]
TTITLE11=You Rascal You   [1940]
TTITLE12=Swing De Paris   [1949]
TTITLE13=Daphne   [1949)
TTITLE14=The Man I Love   [1943]
TTITLE15=Some Of These Days   [1943]
TTITLE16=Ain't Misbehavin'   [1953]
TTITLE17=How High The Moon   [1954]
TTITLE18=Limehouse Blues   [1934]
TTITLE19=Sweet Georgia Brown   [1934]
TTITLE20=Swinging With Django   [1936]
TTITLE21=The Sheik Of Araby   [1936]
TTITLE22=Bolero   [1937]
TTITLE23=Georgia On My Mind   [1927]
TTITLE24=Tiger Rag   [1939]
EXTD=YEAR: 2010
EXTT0=
EXTT1=
EXTT2=
EXTT3=
EXTT4=
EXTT5=
EXTT6=
EXTT7=
EXTT8=
EXTT9=
EXTT10=
EXTT11=
EXTT12=
EXTT13=
EXTT14=
EXTT15=
EXTT16=
EXTT17=
EXTT18=
EXTT19=
EXTT20=
EXTT21=
EXTT22=
EXTT23=
EXTT24=
PLAYORDER=
